<svg width="303" height="72" viewBox="0 0 303 72" fill="none" xmlns="http://www.w3.org/2000/svg">
<path d="M85.9 14.46V17.26H91.34V19.92H85.9V25H82.46V11.8H92.72V14.46H85.9ZM98.27 14.8C99.9367 14.8 101.23 15.26 102.15 16.18C103.083 17.0867 103.55 18.36 103.55 20C103.55 21.64 103.083 22.92 102.15 23.84C101.23 24.7467 99.9367 25.2 98.27 25.2C96.6033 25.2 95.3033 24.7467 94.37 23.84C93.45 22.92 92.99 21.64 92.99 20C92.99 18.36 93.45 17.0867 94.37 16.18C95.3033 15.26 96.6033 14.8 98.27 14.8ZM98.27 17.22C97.63 17.22 97.1567 17.44 96.85 17.88C96.5433 18.32 96.39 19.0267 96.39 20C96.39 20.9733 96.5433 21.68 96.85 22.12C97.1567 22.56 97.63 22.78 98.27 22.78C98.91 22.78 99.3833 22.56 99.69 22.12C99.9967 21.68 100.15 20.9733 100.15 20C100.15 19.0267 99.9967 18.32 99.69 17.88C99.3833 17.44 98.91 17.22 98.27 17.22ZM115.461 15V25H112.421L112.321 23.14C111.695 24.5133 110.541 25.2 108.861 25.2C107.795 25.2 106.955 24.92 106.341 24.36C105.741 23.7867 105.441 22.8933 105.441 21.68V15H108.841V20.82C108.841 21.4733 108.955 21.9333 109.181 22.2C109.408 22.4667 109.755 22.6 110.221 22.6C110.781 22.6 111.228 22.4133 111.561 22.04C111.895 21.6533 112.061 21.0733 112.061 20.3V15H115.461ZM124.464 14.8C125.517 14.8 126.357 15.1067 126.984 15.72C127.61 16.3333 127.924 17.2067 127.924 18.34V25H124.524V19.28C124.524 18.6 124.397 18.12 124.144 17.84C123.904 17.5467 123.557 17.4 123.104 17.4C122.57 17.4 122.137 17.5933 121.804 17.98C121.47 18.3533 121.304 18.9333 121.304 19.72V25H117.904V15H120.944L121.044 16.92C121.364 16.2133 121.817 15.6867 122.404 15.34C122.99 14.98 123.677 14.8 124.464 14.8ZM140.446 10.76V25H137.386L137.266 23.1C136.973 23.7533 136.539 24.2667 135.966 24.64C135.406 25.0133 134.753 25.2 134.006 25.2C132.713 25.2 131.699 24.7467 130.966 23.84C130.246 22.9333 129.886 21.6667 129.886 20.04C129.886 18.3867 130.253 17.1 130.986 16.18C131.719 15.26 132.733 14.8 134.026 14.8C134.733 14.8 135.339 14.9667 135.846 15.3C136.353 15.6333 136.753 16.0933 137.046 16.68V10.76H140.446ZM135.186 22.7C135.733 22.7 136.166 22.5067 136.486 22.12C136.819 21.72 137.006 21.1467 137.046 20.4V19.6C137.006 18.8667 136.819 18.3 136.486 17.9C136.166 17.5 135.733 17.3 135.186 17.3C134.586 17.3 134.119 17.52 133.786 17.96C133.466 18.4 133.306 19.08 133.306 20C133.306 20.92 133.466 21.6 133.786 22.04C134.119 22.48 134.586 22.7 135.186 22.7ZM152.525 23.06C152.778 23.06 152.985 23.0333 153.145 22.98L152.885 24.88C152.498 25.0933 152.045 25.2 151.525 25.2C150.085 25.2 149.225 24.6867 148.945 23.66C148.345 24.6867 147.158 25.2 145.385 25.2C144.385 25.2 143.618 24.9867 143.085 24.56C142.551 24.1333 142.285 23.5133 142.285 22.7C142.285 21.8467 142.585 21.16 143.185 20.64C143.798 20.1067 144.798 19.7 146.185 19.42L148.445 18.98V18.62C148.445 18.1667 148.318 17.8067 148.065 17.54C147.811 17.2733 147.465 17.14 147.025 17.14C146.518 17.14 146.105 17.26 145.785 17.5C145.465 17.74 145.258 18.1333 145.165 18.68L142.405 17.88C142.578 16.9067 143.058 16.1533 143.845 15.62C144.631 15.0733 145.691 14.8 147.025 14.8C148.585 14.8 149.771 15.12 150.585 15.76C151.398 16.4 151.805 17.36 151.805 18.64V22.28C151.805 22.8 152.045 23.06 152.525 23.06ZM146.625 23C147.091 23 147.511 22.8733 147.885 22.62C148.258 22.3533 148.445 22.0067 148.445 21.58V20.72L146.825 21.1C146.398 21.2067 146.091 21.34 145.905 21.5C145.731 21.6467 145.645 21.86 145.645 22.14C145.645 22.42 145.731 22.6333 145.905 22.78C146.078 22.9267 146.318 23 146.625 23ZM161.355 24.44C161.022 24.6667 160.595 24.8533 160.075 25C159.568 25.1333 159.055 25.2 158.535 25.2C157.348 25.2 156.442 24.9467 155.815 24.44C155.188 23.9333 154.868 23.12 154.855 22V17.42H153.135V15H154.855V12.76L158.255 11.82V15H161.255V17.42H158.255V21.44C158.255 22.3333 158.695 22.78 159.575 22.78C160.122 22.78 160.602 22.6333 161.015 22.34L161.355 24.44ZM164.486 13.84C163.793 13.84 163.286 13.7133 162.966 13.46C162.66 13.1933 162.506 12.78 162.506 12.22C162.506 11.6467 162.66 11.2333 162.966 10.98C163.286 10.7133 163.793 10.58 164.486 10.58C165.18 10.58 165.68 10.7133 165.986 10.98C166.306 11.2333 166.466 11.6467 166.466 12.22C166.466 12.78 166.306 13.1933 165.986 13.46C165.68 13.7133 165.18 13.84 164.486 13.84ZM166.186 25H162.786V15H166.186V25ZM173.407 14.8C175.073 14.8 176.367 15.26 177.287 16.18C178.22 17.0867 178.687 18.36 178.687 20C178.687 21.64 178.22 22.92 177.287 23.84C176.367 24.7467 175.073 25.2 173.407 25.2C171.74 25.2 170.44 24.7467 169.507 23.84C168.587 22.92 168.127 21.64 168.127 20C168.127 18.36 168.587 17.0867 169.507 16.18C170.44 15.26 171.74 14.8 173.407 14.8ZM173.407 17.22C172.767 17.22 172.293 17.44 171.987 17.88C171.68 18.32 171.527 19.0267 171.527 20C171.527 20.9733 171.68 21.68 171.987 22.12C172.293 22.56 172.767 22.78 173.407 22.78C174.047 22.78 174.52 22.56 174.827 22.12C175.133 21.68 175.287 20.9733 175.287 20C175.287 19.0267 175.133 18.32 174.827 17.88C174.52 17.44 174.047 17.22 173.407 17.22ZM187.198 14.8C188.251 14.8 189.091 15.1067 189.718 15.72C190.345 16.3333 190.658 17.2067 190.658 18.34V25H187.258V19.28C187.258 18.6 187.131 18.12 186.878 17.84C186.638 17.5467 186.291 17.4 185.838 17.4C185.305 17.4 184.871 17.5933 184.538 17.98C184.205 18.3533 184.038 18.9333 184.038 19.72V25H180.638V15H183.678L183.778 16.92C184.098 16.2133 184.551 15.6867 185.138 15.34C185.725 14.98 186.411 14.8 187.198 14.8Z" fill="#2B292D"/>
<path d="M86.76 37.94C88.884 37.94 90.414 38.78 91.35 40.46L90.108 41.468C89.748 40.676 89.316 40.118 88.812 39.794C88.32 39.458 87.642 39.29 86.778 39.29C85.866 39.29 85.146 39.482 84.618 39.866C84.102 40.238 83.844 40.718 83.844 41.306C83.844 41.69 83.946 42.008 84.15 42.26C84.354 42.512 84.69 42.734 85.158 42.926C85.638 43.106 86.298 43.268 87.138 43.412C88.71 43.676 89.82 44.072 90.468 44.6C91.128 45.128 91.458 45.86 91.458 46.796C91.458 47.468 91.266 48.062 90.882 48.578C90.51 49.082 89.976 49.478 89.28 49.766C88.584 50.042 87.78 50.18 86.868 50.18C85.668 50.18 84.642 49.946 83.79 49.478C82.95 49.01 82.308 48.386 81.864 47.606L83.106 46.598C83.43 47.306 83.904 47.858 84.528 48.254C85.164 48.638 85.956 48.83 86.904 48.83C87.84 48.83 88.584 48.662 89.136 48.326C89.688 47.978 89.964 47.492 89.964 46.868C89.964 46.34 89.724 45.92 89.244 45.608C88.764 45.296 87.912 45.032 86.688 44.816C85.104 44.54 83.982 44.144 83.322 43.628C82.662 43.112 82.332 42.392 82.332 41.468C82.332 40.832 82.512 40.244 82.872 39.704C83.232 39.164 83.748 38.738 84.42 38.426C85.092 38.102 85.872 37.94 86.76 37.94ZM99.7133 49.37C99.1133 49.91 98.3393 50.18 97.3913 50.18C96.6593 50.18 96.0593 49.982 95.5913 49.586C95.1353 49.19 94.9013 48.584 94.8893 47.768V42.242H93.0893V41H94.8893V38.84L96.3293 38.444V41H99.6593V42.242H96.3293V47.516C96.3293 47.948 96.4493 48.278 96.6893 48.506C96.9413 48.722 97.2713 48.83 97.6793 48.83C98.2553 48.83 98.7653 48.608 99.2093 48.164L99.7133 49.37ZM109.126 48.956C109.366 48.956 109.606 48.926 109.846 48.866L109.756 50C109.42 50.12 109.06 50.18 108.676 50.18C108.208 50.18 107.836 50.078 107.56 49.874C107.296 49.67 107.128 49.328 107.056 48.848C106.78 49.268 106.372 49.598 105.832 49.838C105.304 50.066 104.746 50.18 104.158 50.18C103.27 50.18 102.538 49.976 101.962 49.568C101.386 49.148 101.098 48.548 101.098 47.768C101.098 47.084 101.398 46.496 101.998 46.004C102.598 45.5 103.468 45.152 104.608 44.96L107.002 44.564V44.06C107.002 43.46 106.816 42.98 106.444 42.62C106.072 42.26 105.556 42.08 104.896 42.08C104.296 42.08 103.774 42.224 103.33 42.512C102.898 42.8 102.562 43.226 102.322 43.79L101.26 43.016C101.5 42.344 101.944 41.81 102.592 41.414C103.252 41.018 104.02 40.82 104.896 40.82C105.964 40.82 106.822 41.078 107.47 41.594C108.118 42.11 108.442 42.872 108.442 43.88V48.308C108.442 48.524 108.496 48.686 108.604 48.794C108.712 48.902 108.886 48.956 109.126 48.956ZM104.23 48.92C104.986 48.92 105.634 48.74 106.174 48.38C106.726 48.02 107.002 47.552 107.002 46.976V45.734L104.986 46.112C104.182 46.256 103.582 46.466 103.186 46.742C102.79 47.006 102.592 47.348 102.592 47.768C102.592 48.14 102.736 48.428 103.024 48.632C103.312 48.824 103.714 48.92 104.23 48.92ZM116.19 40.82C116.622 40.82 116.952 40.88 117.18 41L116.892 42.404C116.604 42.248 116.226 42.17 115.758 42.17C115.374 42.17 114.996 42.284 114.624 42.512C114.264 42.728 113.964 43.064 113.724 43.52C113.496 43.964 113.382 44.504 113.382 45.14V50H111.942V41H113.112L113.31 42.476C113.814 41.372 114.774 40.82 116.19 40.82ZM124.252 49.37C123.652 49.91 122.878 50.18 121.93 50.18C121.198 50.18 120.598 49.982 120.13 49.586C119.674 49.19 119.44 48.584 119.428 47.768V42.242H117.628V41H119.428V38.84L120.868 38.444V41H124.198V42.242H120.868V47.516C120.868 47.948 120.988 48.278 121.228 48.506C121.48 48.722 121.81 48.83 122.218 48.83C122.794 48.83 123.304 48.608 123.748 48.164L124.252 49.37ZM134.079 41V50H132.819L132.729 48.632C132.129 49.664 131.055 50.18 129.507 50.18C128.535 50.18 127.737 49.91 127.113 49.37C126.501 48.83 126.195 48.002 126.195 46.886V41H127.635V46.508C127.635 47.384 127.815 48.008 128.175 48.38C128.535 48.74 129.063 48.92 129.759 48.92C130.587 48.92 131.271 48.668 131.811 48.164C132.363 47.66 132.639 46.904 132.639 45.896V41H134.079ZM141.858 40.82C143.118 40.82 144.114 41.24 144.846 42.08C145.59 42.908 145.962 44.048 145.962 45.5C145.962 46.952 145.59 48.098 144.846 48.938C144.114 49.766 143.118 50.18 141.858 50.18C141.198 50.18 140.604 50.036 140.076 49.748C139.56 49.46 139.158 49.076 138.87 48.596V53.78H137.43V41H138.69L138.78 42.566C139.044 42.038 139.446 41.618 139.986 41.306C140.538 40.982 141.162 40.82 141.858 40.82ZM141.696 48.92C142.572 48.92 143.262 48.614 143.766 48.002C144.27 47.378 144.522 46.544 144.522 45.5C144.522 44.456 144.27 43.628 143.766 43.016C143.262 42.392 142.572 42.08 141.696 42.08C140.832 42.08 140.142 42.38 139.626 42.98C139.122 43.58 138.87 44.384 138.87 45.392V45.608C138.87 46.616 139.122 47.42 139.626 48.02C140.142 48.62 140.832 48.92 141.696 48.92ZM156.271 47.588C156.271 48.044 156.337 48.362 156.469 48.542C156.613 48.71 156.871 48.794 157.243 48.794C157.495 48.794 157.711 48.776 157.891 48.74C158.083 48.704 158.305 48.638 158.557 48.542L158.323 49.928C157.927 50.096 157.483 50.18 156.991 50.18C156.259 50.18 155.713 49.982 155.353 49.586C155.005 49.19 154.831 48.584 154.831 47.768V36.86H156.271V47.588ZM167.784 48.956C168.024 48.956 168.264 48.926 168.504 48.866L168.414 50C168.078 50.12 167.718 50.18 167.334 50.18C166.866 50.18 166.494 50.078 166.218 49.874C165.954 49.67 165.786 49.328 165.714 48.848C165.438 49.268 165.03 49.598 164.49 49.838C163.962 50.066 163.404 50.18 162.816 50.18C161.928 50.18 161.196 49.976 160.62 49.568C160.044 49.148 159.756 48.548 159.756 47.768C159.756 47.084 160.056 46.496 160.656 46.004C161.256 45.5 162.126 45.152 163.266 44.96L165.66 44.564V44.06C165.66 43.46 165.474 42.98 165.102 42.62C164.73 42.26 164.214 42.08 163.554 42.08C162.954 42.08 162.432 42.224 161.988 42.512C161.556 42.8 161.22 43.226 160.98 43.79L159.918 43.016C160.158 42.344 160.602 41.81 161.25 41.414C161.91 41.018 162.678 40.82 163.554 40.82C164.622 40.82 165.48 41.078 166.128 41.594C166.776 42.11 167.1 42.872 167.1 43.88V48.308C167.1 48.524 167.154 48.686 167.262 48.794C167.37 48.902 167.544 48.956 167.784 48.956ZM162.888 48.92C163.644 48.92 164.292 48.74 164.832 48.38C165.384 48.02 165.66 47.552 165.66 46.976V45.734L163.644 46.112C162.84 46.256 162.24 46.466 161.844 46.742C161.448 47.006 161.25 47.348 161.25 47.768C161.25 48.14 161.394 48.428 161.682 48.632C161.97 48.824 162.372 48.92 162.888 48.92ZM174.974 40.82C175.994 40.82 176.834 41.114 177.494 41.702C178.154 42.29 178.484 43.136 178.484 44.24V50H177.044V44.744C177.044 43.808 176.84 43.13 176.432 42.71C176.036 42.29 175.502 42.08 174.83 42.08C174.35 42.08 173.9 42.188 173.48 42.404C173.06 42.608 172.712 42.95 172.436 43.43C172.172 43.898 172.04 44.492 172.04 45.212V50H170.6V41H171.86L171.95 42.404C172.25 41.864 172.664 41.468 173.192 41.216C173.72 40.952 174.314 40.82 174.974 40.82ZM189.736 36.86V50H188.476L188.386 48.434C188.122 48.962 187.714 49.388 187.162 49.712C186.622 50.024 186.004 50.18 185.308 50.18C184.048 50.18 183.046 49.766 182.302 48.938C181.57 48.098 181.204 46.952 181.204 45.5C181.204 44.048 181.57 42.908 182.302 42.08C183.046 41.24 184.048 40.82 185.308 40.82C185.968 40.82 186.556 40.964 187.072 41.252C187.6 41.54 188.008 41.924 188.296 42.404V36.86H189.736ZM185.47 48.92C186.334 48.92 187.018 48.62 187.522 48.02C188.038 47.42 188.296 46.616 188.296 45.608V45.392C188.296 44.384 188.038 43.58 187.522 42.98C187.018 42.38 186.334 42.08 185.47 42.08C184.594 42.08 183.904 42.392 183.4 43.016C182.896 43.628 182.644 44.456 182.644 45.5C182.644 46.544 182.896 47.378 183.4 48.002C183.904 48.614 184.594 48.92 185.47 48.92ZM193.802 39.272C193.478 39.272 193.214 39.176 193.01 38.984C192.818 38.78 192.722 38.516 192.722 38.192C192.722 37.868 192.818 37.61 193.01 37.418C193.214 37.214 193.478 37.112 193.802 37.112C194.126 37.112 194.384 37.214 194.576 37.418C194.78 37.61 194.882 37.868 194.882 38.192C194.882 38.516 194.78 38.78 194.576 38.984C194.384 39.176 194.126 39.272 193.802 39.272ZM194.522 50H193.082V41H194.522V50ZM202.237 40.82C203.257 40.82 204.097 41.114 204.757 41.702C205.417 42.29 205.747 43.136 205.747 44.24V50H204.307V44.744C204.307 43.808 204.103 43.13 203.695 42.71C203.299 42.29 202.765 42.08 202.093 42.08C201.613 42.08 201.163 42.188 200.743 42.404C200.323 42.608 199.975 42.95 199.699 43.43C199.435 43.898 199.303 44.492 199.303 45.212V50H197.863V41H199.123L199.213 42.404C199.513 41.864 199.927 41.468 200.455 41.216C200.983 40.952 201.577 40.82 202.237 40.82ZM214.03 48.848C214.882 48.848 215.548 49.04 216.028 49.424C216.508 49.808 216.748 50.33 216.748 50.99C216.748 51.566 216.55 52.07 216.154 52.502C215.758 52.946 215.218 53.282 214.534 53.51C213.862 53.75 213.118 53.87 212.302 53.87C210.934 53.87 209.902 53.648 209.206 53.204C208.51 52.772 208.162 52.202 208.162 51.494C208.162 51.086 208.3 50.726 208.576 50.414C208.864 50.102 209.254 49.88 209.746 49.748C209.374 49.568 209.074 49.34 208.846 49.064C208.63 48.788 208.522 48.464 208.522 48.092C208.522 47.648 208.642 47.282 208.882 46.994C209.122 46.694 209.452 46.472 209.872 46.328C209.44 46.064 209.11 45.722 208.882 45.302C208.666 44.87 208.558 44.39 208.558 43.862C208.558 43.274 208.714 42.752 209.026 42.296C209.338 41.828 209.776 41.468 210.34 41.216C210.904 40.952 211.54 40.82 212.248 40.82C212.92 40.82 213.532 40.94 214.084 41.18C214.42 39.956 215.266 39.344 216.622 39.344L216.946 40.604C215.77 40.604 215.056 40.934 214.804 41.594C215.164 41.87 215.44 42.2 215.632 42.584C215.836 42.968 215.938 43.394 215.938 43.862C215.938 44.45 215.782 44.978 215.47 45.446C215.158 45.902 214.72 46.262 214.156 46.526C213.592 46.778 212.956 46.904 212.248 46.904C211.72 46.904 211.258 46.85 210.862 46.742C210.502 46.826 210.244 46.958 210.088 47.138C209.932 47.318 209.854 47.564 209.854 47.876C209.854 48.188 209.962 48.428 210.178 48.596C210.394 48.764 210.682 48.848 211.042 48.848H214.03ZM212.248 41.99C211.624 41.99 211.102 42.164 210.682 42.512C210.262 42.86 210.052 43.31 210.052 43.862C210.052 44.414 210.262 44.864 210.682 45.212C211.102 45.56 211.624 45.734 212.248 45.734C212.872 45.734 213.394 45.56 213.814 45.212C214.234 44.864 214.444 44.414 214.444 43.862C214.444 43.31 214.234 42.86 213.814 42.512C213.394 42.164 212.872 41.99 212.248 41.99ZM212.464 52.664C213.376 52.664 214.096 52.514 214.624 52.214C215.152 51.926 215.416 51.572 215.416 51.152C215.416 50.804 215.278 50.54 215.002 50.36C214.738 50.18 214.282 50.09 213.634 50.09H211.222C210.67 50.09 210.244 50.186 209.944 50.378C209.644 50.582 209.494 50.858 209.494 51.206C209.494 51.662 209.746 52.016 210.25 52.268C210.754 52.532 211.492 52.664 212.464 52.664ZM230.178 49.37C229.578 49.91 228.804 50.18 227.856 50.18C227.124 50.18 226.524 49.982 226.056 49.586C225.6 49.19 225.366 48.584 225.354 47.768V42.242H223.554V41H225.354V38.84L226.794 38.444V41H230.124V42.242H226.794V47.516C226.794 47.948 226.914 48.278 227.154 48.506C227.406 48.722 227.736 48.83 228.144 48.83C228.72 48.83 229.23 48.608 229.674 48.164L230.178 49.37ZM239.933 45.032C239.933 45.368 239.909 45.704 239.861 46.04H233.075C233.159 46.952 233.459 47.66 233.975 48.164C234.503 48.668 235.181 48.92 236.009 48.92C236.669 48.92 237.215 48.806 237.647 48.578C238.091 48.35 238.391 48.02 238.547 47.588L239.753 48.218C239.393 48.854 238.913 49.34 238.313 49.676C237.713 50.012 236.945 50.18 236.009 50.18C234.653 50.18 233.585 49.766 232.805 48.938C232.037 48.11 231.653 46.964 231.653 45.5C231.653 44.036 232.019 42.89 232.751 42.062C233.495 41.234 234.545 40.82 235.901 40.82C236.741 40.82 237.467 41.006 238.079 41.378C238.691 41.75 239.153 42.254 239.465 42.89C239.777 43.526 239.933 44.24 239.933 45.032ZM235.901 42.08C235.109 42.08 234.467 42.314 233.975 42.782C233.495 43.25 233.201 43.91 233.093 44.762H238.547C238.451 43.922 238.175 43.268 237.719 42.8C237.263 42.32 236.657 42.08 235.901 42.08ZM253.128 40.82C253.728 40.82 254.286 40.946 254.802 41.198C255.33 41.438 255.756 41.816 256.08 42.332C256.404 42.848 256.566 43.484 256.566 44.24V50H255.126V44.384C255.126 43.604 254.928 43.028 254.532 42.656C254.148 42.272 253.638 42.08 253.002 42.08C252.522 42.08 252.078 42.2 251.67 42.44C251.274 42.668 250.95 43.01 250.698 43.466C250.458 43.91 250.338 44.444 250.338 45.068V50H248.898V44.384C248.898 43.604 248.7 43.028 248.304 42.656C247.92 42.272 247.41 42.08 246.774 42.08C246.342 42.08 245.922 42.194 245.514 42.422C245.106 42.638 244.77 42.98 244.506 43.448C244.242 43.916 244.11 44.498 244.11 45.194V50H242.67V41H243.93L244.02 42.404C244.332 41.876 244.74 41.48 245.244 41.216C245.76 40.952 246.312 40.82 246.9 40.82C247.56 40.82 248.166 40.97 248.718 41.27C249.282 41.57 249.708 42.008 249.996 42.584C250.26 42.008 250.692 41.57 251.292 41.27C251.892 40.97 252.504 40.82 253.128 40.82ZM264.254 40.82C265.514 40.82 266.51 41.24 267.242 42.08C267.986 42.908 268.358 44.048 268.358 45.5C268.358 46.952 267.986 48.098 267.242 48.938C266.51 49.766 265.514 50.18 264.254 50.18C263.594 50.18 263 50.036 262.472 49.748C261.956 49.46 261.554 49.076 261.266 48.596V53.78H259.826V41H261.086L261.176 42.566C261.44 42.038 261.842 41.618 262.382 41.306C262.934 40.982 263.558 40.82 264.254 40.82ZM264.092 48.92C264.968 48.92 265.658 48.614 266.162 48.002C266.666 47.378 266.918 46.544 266.918 45.5C266.918 44.456 266.666 43.628 266.162 43.016C265.658 42.392 264.968 42.08 264.092 42.08C263.228 42.08 262.538 42.38 262.022 42.98C261.518 43.58 261.266 44.384 261.266 45.392V45.608C261.266 46.616 261.518 47.42 262.022 48.02C262.538 48.62 263.228 48.92 264.092 48.92ZM272.532 47.588C272.532 48.044 272.598 48.362 272.73 48.542C272.874 48.71 273.132 48.794 273.504 48.794C273.756 48.794 273.972 48.776 274.152 48.74C274.344 48.704 274.566 48.638 274.818 48.542L274.584 49.928C274.188 50.096 273.744 50.18 273.252 50.18C272.52 50.18 271.974 49.982 271.614 49.586C271.266 49.19 271.092 48.584 271.092 47.768V36.86H272.532V47.588ZM284.046 48.956C284.286 48.956 284.526 48.926 284.766 48.866L284.676 50C284.34 50.12 283.98 50.18 283.596 50.18C283.128 50.18 282.756 50.078 282.48 49.874C282.216 49.67 282.048 49.328 281.976 48.848C281.7 49.268 281.292 49.598 280.752 49.838C280.224 50.066 279.666 50.18 279.078 50.18C278.19 50.18 277.458 49.976 276.882 49.568C276.306 49.148 276.018 48.548 276.018 47.768C276.018 47.084 276.318 46.496 276.918 46.004C277.518 45.5 278.388 45.152 279.528 44.96L281.922 44.564V44.06C281.922 43.46 281.736 42.98 281.364 42.62C280.992 42.26 280.476 42.08 279.816 42.08C279.216 42.08 278.694 42.224 278.25 42.512C277.818 42.8 277.482 43.226 277.242 43.79L276.18 43.016C276.42 42.344 276.864 41.81 277.512 41.414C278.172 41.018 278.94 40.82 279.816 40.82C280.884 40.82 281.742 41.078 282.39 41.594C283.038 42.11 283.362 42.872 283.362 43.88V48.308C283.362 48.524 283.416 48.686 283.524 48.794C283.632 48.902 283.806 48.956 284.046 48.956ZM279.15 48.92C279.906 48.92 280.554 48.74 281.094 48.38C281.646 48.02 281.922 47.552 281.922 46.976V45.734L279.906 46.112C279.102 46.256 278.502 46.466 278.106 46.742C277.71 47.006 277.512 47.348 277.512 47.768C277.512 48.14 277.656 48.428 277.944 48.632C278.232 48.824 278.634 48.92 279.15 48.92ZM292.018 49.37C291.418 49.91 290.644 50.18 289.696 50.18C288.964 50.18 288.364 49.982 287.896 49.586C287.44 49.19 287.206 48.584 287.194 47.768V42.242H285.394V41H287.194V38.84L288.634 38.444V41H291.964V42.242H288.634V47.516C288.634 47.948 288.754 48.278 288.994 48.506C289.246 48.722 289.576 48.83 289.984 48.83C290.56 48.83 291.07 48.608 291.514 48.164L292.018 49.37ZM301.773 45.032C301.773 45.368 301.749 45.704 301.701 46.04H294.915C294.999 46.952 295.299 47.66 295.815 48.164C296.343 48.668 297.021 48.92 297.849 48.92C298.509 48.92 299.055 48.806 299.487 48.578C299.931 48.35 300.231 48.02 300.387 47.588L301.593 48.218C301.233 48.854 300.753 49.34 300.153 49.676C299.553 50.012 298.785 50.18 297.849 50.18C296.493 50.18 295.425 49.766 294.645 48.938C293.877 48.11 293.493 46.964 293.493 45.5C293.493 44.036 293.859 42.89 294.591 42.062C295.335 41.234 296.385 40.82 297.741 40.82C298.581 40.82 299.307 41.006 299.919 41.378C300.531 41.75 300.993 42.254 301.305 42.89C301.617 43.526 301.773 44.24 301.773 45.032ZM297.741 42.08C296.949 42.08 296.307 42.314 295.815 42.782C295.335 43.25 295.041 43.91 294.933 44.762H300.387C300.291 43.922 300.015 43.268 299.559 42.8C299.103 42.32 298.497 42.08 297.741 42.08Z" fill="#2B292D" fill-opacity="0.6"/>
<g filter="url(#filter0_ddi)">
<rect x="6" y="2" width="60" height="60" rx="14" fill="white"/>
<rect x="6" y="2" width="60" height="60" rx="14" fill="url(#paint0_linear)" fill-opacity="0.1" style="mix-blend-mode:overlay"/>
</g>
<path fill-rule="evenodd" clip-rule="evenodd" d="M23.8077 29.0655V27.8014C23.8077 27.4568 24.0943 27.1694 24.4479 27.1694H48.5521C48.9072 27.1694 49.1923 27.4523 49.1923 27.8014V29.0655C46.918 29.0659 44.8765 30.0591 43.481 31.6335C42.0854 30.0586 40.0432 29.0655 37.7678 29.0655H35.2322C32.9575 29.0655 30.9156 30.0585 29.5199 31.633C28.1242 30.0585 26.0823 29.0655 23.8077 29.0655ZM51.7308 25.2732H21.2692C20.5683 25.2732 20 24.7072 20 24.0091V13.2641C20 12.566 20.5683 12 21.2692 12H26.9808C27.6817 12 28.25 12.566 28.25 13.2641V17.0565H31.4231V13.2641C31.4231 12.566 31.9913 12 32.6923 12H40.3077C41.0087 12 41.5769 12.566 41.5769 13.2641V17.0565H44.75V13.2641C44.75 12.566 45.3183 12 46.0192 12H51.7308C52.4317 12 53 12.566 53 13.2641V24.0091C53 24.7072 52.4317 25.2732 51.7308 25.2732ZM43.481 34.3524V34.3524C44.8456 32.3087 47.1791 30.9617 49.8283 30.9617C50.5293 30.9617 51.0975 31.5277 51.0975 32.2258V51.1875C51.0975 51.8856 50.5293 52.4516 49.8283 52.4516H43.4808C42.7798 52.4516 42.2115 51.8856 42.2115 51.1875V38.5464C42.2115 35.753 39.9385 33.4899 37.1332 33.4899H35.8668C33.0622 33.4899 30.7885 35.7539 30.7885 38.5464V51.1875C30.7885 51.8851 30.2211 52.4507 29.521 52.4516L29.5206 52.4516H23.1731C22.4721 52.4516 21.9038 51.8856 21.9038 51.1875V32.2258C21.9038 31.5277 22.4721 30.9617 23.1731 30.9617C25.822 30.9617 28.1552 32.3084 29.5199 34.3517C30.8846 32.3084 33.2179 30.9617 35.8668 30.9617H37.1332C39.783 30.9617 42.1165 32.3085 43.481 34.3524ZM44.75 46.0746L48.4131 43.237C48.4601 43.2006 48.5089 43.168 48.5591 43.1391V40.0064L44.75 42.9571V46.0746ZM44.75 39.7542L48.4131 36.9165C48.4601 36.8801 48.5089 36.8475 48.5591 36.8187V33.6163C48.5591 33.6163 48.0069 33.7446 47.2515 34.1884C45.7544 35.0679 44.75 36.6904 44.75 38.5464V39.7542ZM44.75 49.2775V49.9234H48.5591V46.3269L44.75 49.2775ZM24.4423 43.1399V43.1399C24.492 43.1686 24.5403 43.201 24.5869 43.237L28.2514 46.0757V42.9581L24.4423 40.0074V43.1399ZM24.4423 36.8194V36.8194C24.492 36.8481 24.5404 36.8804 24.587 36.9165L28.2514 39.7551V38.5464C28.2514 36.1861 26.627 34.2034 24.4423 33.6462V36.8194ZM24.4423 46.3279V49.9234H28.2514V49.2786L24.4423 46.3279V46.3279Z" fill="url(#paint1_linear)"/>
<defs>
<filter id="filter0_ddi" x="0" y="0" width="72" height="72" filterUnits="userSpaceOnUse" color-interpolation-filters="sRGB">
<feFlood flood-opacity="0" result="BackgroundImageFix"/>
<feColorMatrix in="SourceAlpha" type="matrix" values="0 0 0 0 0 0 0 0 0 0 0 0 0 0 0 0 0 0 127 0"/>
<feOffset dy="4"/>
<feGaussianBlur stdDeviation="3"/>
<feColorMatrix type="matrix" values="0 0 0 0 0 0 0 0 0 0 0 0 0 0 0 0 0 0 0.05 0"/>
<feBlend mode="normal" in2="BackgroundImageFix" result="effect1_dropShadow"/>
<feColorMatrix in="SourceAlpha" type="matrix" values="0 0 0 0 0 0 0 0 0 0 0 0 0 0 0 0 0 0 127 0"/>
<feOffset dy="1"/>
<feGaussianBlur stdDeviation="1.5"/>
<feColorMatrix type="matrix" values="0 0 0 0 0 0 0 0 0 0 0 0 0 0 0 0 0 0 0.1 0"/>
<feBlend mode="normal" in2="effect1_dropShadow" result="effect2_dropShadow"/>
<feBlend mode="normal" in="SourceGraphic" in2="effect2_dropShadow" result="shape"/>
<feColorMatrix in="SourceAlpha" type="matrix" values="0 0 0 0 0 0 0 0 0 0 0 0 0 0 0 0 0 0 127 0" result="hardAlpha"/>
<feOffset dy="1"/>
<feComposite in2="hardAlpha" operator="arithmetic" k2="-1" k3="1"/>
<feColorMatrix type="matrix" values="0 0 0 0 1 0 0 0 0 1 0 0 0 0 1 0 0 0 0.1 0"/>
<feBlend mode="normal" in2="shape" result="effect3_innerShadow"/>
</filter>
<linearGradient id="paint0_linear" x1="6" y1="2" x2="6" y2="62" gradientUnits="userSpaceOnUse">
<stop stop-color="white" stop-opacity="0.5"/>
<stop offset="1" stop-color="white" stop-opacity="0.01"/>
</linearGradient>
<linearGradient id="paint1_linear" x1="6.31875" y1="30.4982" x2="43.2213" y2="63.4145" gradientUnits="userSpaceOnUse">
<stop stop-color="#3142C6"/>
<stop offset="1" stop-color="#AF61D1"/>
</linearGradient>
</defs>
</svg>
